<svg width="65" height="65" viewBox="0 0 65 65" fill="none" xmlns="http://www.w3.org/2000/svg">
<g id="Search results for Prize - Flaticon-12 1" clip-path="url(#clip0_257_730)">
<g id="Group">
<path id="Vector" d="M54.3617 0.5L47.6617 13H17.3367L10.6367 0.5H54.3617Z" fill="url(#paint0_linear_257_730)"/>
<path id="Vector_2" d="M52.6875 3.625L49.3375 9.875H15.6625L12.3125 3.625H52.6875Z" fill="url(#paint1_linear_257_730)"/>
<path id="Vector_3" d="M39.2988 28.5875L50.1238 34.8375L61.8613 13L54.3613 0.5L39.2988 28.5875Z" fill="url(#paint2_linear_257_730)"/>
<path id="Vector_4" d="M60.2113 10.2376L47.1488 33.1126L41.7363 29.9876L56.4488 3.9751L60.2113 10.2376Z" fill="url(#paint3_linear_257_730)"/>
<path id="Vector_5" d="M25.6992 28.5875L14.8742 34.8375L3.13672 13L10.6367 0.5L25.6992 28.5875Z" fill="url(#paint4_linear_257_730)"/>
<path id="Vector_6" d="M4.78711 10.2376L17.8496 33.1126L23.2621 29.9876L8.54961 3.9751L4.78711 10.2376Z" fill="url(#paint5_linear_257_730)"/>
<path id="Vector_7" d="M32.5 64.5C43.7183 64.5 52.8125 55.4058 52.8125 44.1875C52.8125 32.9692 43.7183 23.875 32.5 23.875C21.2817 23.875 12.1875 32.9692 12.1875 44.1875C12.1875 55.4058 21.2817 64.5 32.5 64.5Z" fill="url(#paint6_linear_257_730)"/>
<path id="Vector_8" d="M32.1875 58.875C40.2992 58.875 46.875 52.2992 46.875 44.1875C46.875 36.0758 40.2992 29.5 32.1875 29.5C24.0758 29.5 17.5 36.0758 17.5 44.1875C17.5 52.2992 24.0758 58.875 32.1875 58.875Z" fill="#08151B" stroke="url(#paint7_linear_257_730)" stroke-opacity="0.2"/>
<path id="2" d="M38.5 51.5H26.8482V48.4127L31.9545 44.2887C32.8366 43.5526 33.471 42.9141 33.8578 42.3732C34.2447 41.8324 34.4381 41.2615 34.4381 40.6606V40.4352C34.4381 39.7742 34.2369 39.2784 33.8346 38.9479C33.4323 38.6023 32.8907 38.4296 32.2099 38.4296C31.4362 38.4296 30.8404 38.6474 30.4226 39.0831C30.0048 39.5188 29.7108 40.0371 29.5406 40.638L26.5 39.5113C26.6857 38.9704 26.941 38.4596 27.266 37.9789C27.5909 37.4831 28.001 37.0549 28.4961 36.6944C29.0068 36.3338 29.5948 36.0484 30.2602 35.838C30.9255 35.6127 31.6915 35.5 32.558 35.5C33.44 35.5 34.2292 35.6202 34.9255 35.8606C35.6219 36.1009 36.2099 36.4315 36.6896 36.8521C37.1692 37.2728 37.5329 37.7761 37.7805 38.362C38.028 38.9329 38.1518 39.5563 38.1518 40.2324C38.1518 40.8934 38.0358 41.5019 37.8037 42.0577C37.587 42.5986 37.2776 43.1094 36.8752 43.5901C36.4884 44.0709 36.0242 44.5366 35.4826 44.9873C34.9565 45.438 34.3917 45.8887 33.7882 46.3394L30.7012 48.6606H38.5V51.5Z" fill="url(#paint8_linear_257_730)"/>
</g>
</g>
<defs>
<linearGradient id="paint0_linear_257_730" x1="10.633" y1="6.75" x2="54.3655" y2="6.75" gradientUnits="userSpaceOnUse">
<stop stop-color="#DE5709"/>
<stop offset="0.5" stop-color="#FDAC33"/>
<stop offset="1" stop-color="#DE5709"/>
</linearGradient>
<linearGradient id="paint1_linear_257_730" x1="12.31" y1="6.75" x2="52.69" y2="6.75" gradientUnits="userSpaceOnUse">
<stop stop-color="#FF7F00"/>
<stop offset="0.5" stop-color="#FCC64F"/>
<stop offset="1" stop-color="#FF7F00"/>
</linearGradient>
<linearGradient id="paint2_linear_257_730" x1="45.1221" y1="32.5001" x2="59.0296" y2="2.67512" gradientUnits="userSpaceOnUse">
<stop stop-color="#DE5709"/>
<stop offset="0.8" stop-color="#FDAC33"/>
</linearGradient>
<linearGradient id="paint3_linear_257_730" x1="55.2662" y1="29.3257" x2="45.7697" y2="8.96035" gradientUnits="userSpaceOnUse">
<stop stop-color="#FF9900"/>
<stop offset="1" stop-color="#FCD34F"/>
</linearGradient>
<linearGradient id="paint4_linear_257_730" x1="19.876" y1="32.5001" x2="5.96847" y2="2.67512" gradientUnits="userSpaceOnUse">
<stop stop-color="#DE5709"/>
<stop offset="0.8" stop-color="#FDAC33"/>
</linearGradient>
<linearGradient id="paint5_linear_257_730" x1="9.73223" y1="29.3257" x2="19.2287" y2="8.96035" gradientUnits="userSpaceOnUse">
<stop stop-color="#FF9900"/>
<stop offset="1" stop-color="#FCD34F"/>
</linearGradient>
<linearGradient id="paint6_linear_257_730" x1="32.5" y1="64.5" x2="32.5" y2="23.875" gradientUnits="userSpaceOnUse">
<stop stop-color="#FF9900"/>
<stop offset="0.11" stop-color="#FFA200"/>
<stop offset="0.37" stop-color="#FFB300"/>
<stop offset="0.65" stop-color="#FFBD00"/>
<stop offset="1" stop-color="#FFC100"/>
</linearGradient>
<linearGradient id="paint7_linear_257_730" x1="17.19" y1="29.5" x2="50.4112" y2="52.9489" gradientUnits="userSpaceOnUse">
<stop stop-color="white" stop-opacity="0.1"/>
<stop offset="0.494792" stop-color="white"/>
<stop offset="1" stop-color="white" stop-opacity="0.1"/>
</linearGradient>
<linearGradient id="paint8_linear_257_730" x1="32.8634" y1="57.1282" x2="32.8634" y2="28.0127" gradientUnits="userSpaceOnUse">
<stop stop-color="#FD7600"/>
<stop offset="0.71" stop-color="#FDBF30"/>
</linearGradient>
<clipPath id="clip0_257_730">
<rect width="64" height="64" fill="white" transform="translate(0.5 0.5)"/>
</clipPath>
</defs>
</svg>
