<svg width="65" height="65" viewBox="0 0 65 65" fill="none" xmlns="http://www.w3.org/2000/svg">
<g id="Search results for Prize - Flaticon-12 2" clip-path="url(#clip0_257_741)">
<g id="Group">
<path id="Vector" d="M54.3617 0.5L47.6617 13H17.3367L10.6367 0.5H54.3617Z" fill="url(#paint0_linear_257_741)"/>
<path id="Vector_2" d="M52.6875 3.625L49.3375 9.875H15.6625L12.3125 3.625H52.6875Z" fill="url(#paint1_linear_257_741)"/>
<path id="Vector_3" d="M39.2988 28.5875L50.1238 34.8375L61.8613 13L54.3613 0.5L39.2988 28.5875Z" fill="url(#paint2_linear_257_741)"/>
<path id="Vector_4" d="M60.2113 10.2376L47.1488 33.1126L41.7363 29.9876L56.4488 3.9751L60.2113 10.2376Z" fill="url(#paint3_linear_257_741)"/>
<path id="Vector_5" d="M25.6992 28.5875L14.8742 34.8375L3.13672 13L10.6367 0.5L25.6992 28.5875Z" fill="url(#paint4_linear_257_741)"/>
<path id="Vector_6" d="M4.78711 10.2376L17.8496 33.1126L23.2621 29.9876L8.54961 3.9751L4.78711 10.2376Z" fill="url(#paint5_linear_257_741)"/>
<path id="Vector_7" d="M32.5 64.5C43.7183 64.5 52.8125 55.4058 52.8125 44.1875C52.8125 32.9692 43.7183 23.875 32.5 23.875C21.2817 23.875 12.1875 32.9692 12.1875 44.1875C12.1875 55.4058 21.2817 64.5 32.5 64.5Z" fill="url(#paint6_linear_257_741)"/>
<path id="Vector_8" d="M32.1875 58.875C40.2992 58.875 46.875 52.2992 46.875 44.1875C46.875 36.0758 40.2992 29.5 32.1875 29.5C24.0758 29.5 17.5 36.0758 17.5 44.1875C17.5 52.2992 24.0758 58.875 32.1875 58.875Z" fill="#08151B" stroke="url(#paint7_linear_257_741)" stroke-opacity="0.2"/>
<path id="3" d="M32.018 42.8823C32.8749 42.8823 33.4954 42.7198 33.8795 42.3947C34.2784 42.0697 34.4778 41.6708 34.4778 41.1981V41.0429C34.4778 40.4815 34.2858 40.0383 33.9017 39.7133C33.5323 39.3735 33.0005 39.2036 32.3061 39.2036C31.6708 39.2036 31.0725 39.3661 30.5111 39.6911C29.9645 40.0014 29.4991 40.452 29.115 41.0429L27.0097 39.0928C27.3052 38.7087 27.6302 38.3615 27.9848 38.0512C28.3393 37.7262 28.7308 37.4529 29.1593 37.2313C29.5877 36.9949 30.0679 36.8176 30.5997 36.6994C31.1464 36.5665 31.7595 36.5 32.4391 36.5C33.2812 36.5 34.042 36.596 34.7216 36.7881C35.4012 36.9801 35.9774 37.2608 36.4501 37.6302C36.9377 37.9848 37.3144 38.4132 37.5803 38.9155C37.8463 39.4178 37.9792 39.9792 37.9792 40.5997C37.9792 41.0873 37.898 41.5305 37.7355 41.9294C37.5729 42.3283 37.3513 42.6754 37.0706 42.9709C36.8047 43.2664 36.4871 43.5102 36.1177 43.7022C35.7632 43.8795 35.379 44.0051 34.9654 44.0789V44.2119C35.9109 44.3744 36.6939 44.7733 37.3144 45.4086C37.9497 46.0291 38.2673 46.8712 38.2673 47.9349C38.2673 48.6293 38.1196 49.2572 37.8241 49.8186C37.5434 50.38 37.1371 50.8601 36.6053 51.259C36.0882 51.6579 35.4529 51.9681 34.6994 52.1898C33.9608 52.3966 33.1334 52.5 32.2175 52.5C31.4344 52.5 30.7401 52.4187 30.1343 52.2562C29.5434 52.0937 29.0189 51.8795 28.5609 51.6136C28.103 51.3329 27.7041 51.0152 27.3643 50.6607C27.0392 50.2913 26.7512 49.9146 26.5 49.5305L28.9598 47.6247C29.2996 48.2599 29.7207 48.7844 30.223 49.1981C30.7401 49.597 31.4271 49.7964 32.2839 49.7964C33.0817 49.7964 33.6948 49.6117 34.1233 49.2424C34.5517 48.873 34.7659 48.3633 34.7659 47.7133V47.5582C34.7659 46.9229 34.5222 46.4501 34.0346 46.1399C33.5471 45.8149 32.8675 45.6524 31.9958 45.6524H30.5554V42.8823H32.018Z" fill="url(#paint8_linear_257_741)"/>
</g>
</g>
<defs>
<linearGradient id="paint0_linear_257_741" x1="10.633" y1="6.75" x2="54.3655" y2="6.75" gradientUnits="userSpaceOnUse">
<stop stop-color="#DE5709"/>
<stop offset="0.5" stop-color="#FDAC33"/>
<stop offset="1" stop-color="#DE5709"/>
</linearGradient>
<linearGradient id="paint1_linear_257_741" x1="12.31" y1="6.75" x2="52.69" y2="6.75" gradientUnits="userSpaceOnUse">
<stop stop-color="#FF7F00"/>
<stop offset="0.5" stop-color="#FCC64F"/>
<stop offset="1" stop-color="#FF7F00"/>
</linearGradient>
<linearGradient id="paint2_linear_257_741" x1="45.1221" y1="32.5001" x2="59.0296" y2="2.67512" gradientUnits="userSpaceOnUse">
<stop stop-color="#DE5709"/>
<stop offset="0.8" stop-color="#FDAC33"/>
</linearGradient>
<linearGradient id="paint3_linear_257_741" x1="55.2662" y1="29.3257" x2="45.7697" y2="8.96035" gradientUnits="userSpaceOnUse">
<stop stop-color="#FF9900"/>
<stop offset="1" stop-color="#FCD34F"/>
</linearGradient>
<linearGradient id="paint4_linear_257_741" x1="19.876" y1="32.5001" x2="5.96847" y2="2.67512" gradientUnits="userSpaceOnUse">
<stop stop-color="#DE5709"/>
<stop offset="0.8" stop-color="#FDAC33"/>
</linearGradient>
<linearGradient id="paint5_linear_257_741" x1="9.73223" y1="29.3257" x2="19.2287" y2="8.96035" gradientUnits="userSpaceOnUse">
<stop stop-color="#FF9900"/>
<stop offset="1" stop-color="#FCD34F"/>
</linearGradient>
<linearGradient id="paint6_linear_257_741" x1="32.5" y1="64.5" x2="32.5" y2="23.875" gradientUnits="userSpaceOnUse">
<stop stop-color="#FF9900"/>
<stop offset="0.11" stop-color="#FFA200"/>
<stop offset="0.37" stop-color="#FFB300"/>
<stop offset="0.65" stop-color="#FFBD00"/>
<stop offset="1" stop-color="#FFC100"/>
</linearGradient>
<linearGradient id="paint7_linear_257_741" x1="17.19" y1="29.5" x2="50.4112" y2="52.9489" gradientUnits="userSpaceOnUse">
<stop stop-color="white" stop-opacity="0.1"/>
<stop offset="0.494792" stop-color="white"/>
<stop offset="1" stop-color="white" stop-opacity="0.1"/>
</linearGradient>
<linearGradient id="paint8_linear_257_741" x1="32.8857" y1="57.7687" x2="32.8857" y2="29.1372" gradientUnits="userSpaceOnUse">
<stop stop-color="#FD7600"/>
<stop offset="0.71" stop-color="#FDBF30"/>
</linearGradient>
<clipPath id="clip0_257_741">
<rect width="64" height="64" fill="white" transform="translate(0.5 0.5)"/>
</clipPath>
</defs>
</svg>
