<svg width="15" height="17" viewBox="0 0 15 17" fill="none" xmlns="http://www.w3.org/2000/svg">
<path fill-rule="evenodd" clip-rule="evenodd" d="M14.6801 10.9319C14.6801 11.1046 14.4883 11.2126 14.3349 11.1262L9.87493 8.61444C9.72153 8.52805 9.72153 8.31207 9.87493 8.22568L14.3349 5.71388C14.4883 5.62749 14.6801 5.73548 14.6801 5.90826L14.6801 10.9319ZM14.45 13.7828C14.5924 13.863 14.6801 14.0111 14.6801 14.1715L14.6801 16.2752C14.6801 16.448 14.4883 16.556 14.3349 16.4696L0.529111 8.69438C0.375713 8.60799 0.375713 8.39201 0.529111 8.30562L2.39678 7.25378C2.53917 7.17359 2.71459 7.17359 2.85697 7.25378L14.45 13.7828ZM5.27299 5.63394C5.11959 5.72033 5.11959 5.93631 5.27299 6.0227L7.11377 7.0594C7.18496 7.09949 7.27267 7.09949 7.34386 7.0594L14.565 2.99256C14.6362 2.95246 14.6801 2.87836 14.6801 2.79818V0.724787C14.6801 0.552004 14.4883 0.444014 14.3349 0.530405L5.27299 5.63394Z" fill="url(#paint0_linear_418_368)"/>
<defs>
<linearGradient id="paint0_linear_418_368" x1="-2.75616" y1="3.54944" x2="17.8626" y2="5.43155" gradientUnits="userSpaceOnUse">
<stop stop-color="#FF8A00"/>
<stop offset="1" stop-color="#FFC700"/>
</linearGradient>
</defs>
</svg>
