<svg width="119" height="24" viewBox="0 0 119 24" fill="none" xmlns="http://www.w3.org/2000/svg">
<path d="M0 23.5106L7.40376 0.0273438H13.1604L20.5642 23.5106H16.5198L9.80102 2.4409H10.6816L4.04435 23.5106H0ZM4.12589 18.4226V14.7533H16.4546V18.4226H4.12589Z" fill="white"/>
<path d="M23.5126 23.5106V5.89817H26.9862V10.1871L26.5622 9.63267C26.7796 9.04558 27.0677 8.51286 27.4265 8.0345C27.7961 7.54526 28.2364 7.143 28.7474 6.82772C29.1823 6.53417 29.6607 6.30586 30.1825 6.14279C30.7152 5.96884 31.2588 5.86555 31.8133 5.83294C32.3678 5.78945 32.9059 5.81119 33.4278 5.89817V9.56743C32.9059 9.41523 32.3025 9.3663 31.6176 9.42066C30.9435 9.47502 30.3347 9.66528 29.7911 9.99144C29.2475 10.285 28.8018 10.6601 28.4539 11.1167C28.1168 11.5733 27.8668 12.0952 27.7037 12.6822C27.5406 13.2584 27.4591 13.8836 27.4591 14.5576V23.5106H23.5126Z" fill="white"/>
<path d="M44.2284 23.9999C42.4454 23.9999 40.8799 23.6139 39.5317 22.842C38.1836 22.0701 37.1291 20.9992 36.368 19.6294C35.6179 18.2595 35.2428 16.6831 35.2428 14.9001C35.2428 12.9758 35.6124 11.3069 36.3517 9.89359C37.091 8.46937 38.1184 7.36587 39.4339 6.5831C40.7494 5.80032 42.2715 5.40893 44.0001 5.40893C45.8266 5.40893 47.3758 5.83837 48.6478 6.69725C49.9307 7.54526 50.882 8.7466 51.5017 10.3013C52.1214 11.856 52.3551 13.6879 52.2029 15.797H48.3054V14.3619C48.2945 12.4485 47.9575 11.0514 47.2943 10.1708C46.6311 9.2902 45.5874 8.84989 44.1632 8.84989C42.5541 8.84989 41.3582 9.35 40.5754 10.3502C39.7927 11.3396 39.4013 12.791 39.4013 14.7044C39.4013 16.4874 39.7927 17.8681 40.5754 18.8466C41.3582 19.8251 42.4998 20.3143 44.0001 20.3143C44.9677 20.3143 45.7994 20.1023 46.4952 19.6783C47.2019 19.2434 47.7455 18.6183 48.126 17.8029L52.0072 18.9771C51.3332 20.5644 50.2895 21.7983 48.8761 22.6789C47.4737 23.5596 45.9244 23.9999 44.2284 23.9999ZM38.1619 15.797V12.829H50.2786V15.797H38.1619Z" fill="white"/>
<path d="M67.5458 23.5106V15.0306C67.5458 14.4761 67.5078 13.8618 67.4317 13.1878C67.3556 12.5137 67.1762 11.8668 66.8935 11.2471C66.6217 10.6166 66.2086 10.1002 65.6541 9.6979C65.1105 9.29564 64.3712 9.09451 63.4362 9.09451C62.9361 9.09451 62.4415 9.17605 61.9522 9.33912C61.463 9.5022 61.0172 9.78487 60.615 10.1871C60.2236 10.5785 59.9083 11.1221 59.6691 11.8179C59.43 12.5028 59.3104 13.3835 59.3104 14.4598L56.9783 13.465C56.9783 11.9647 57.2664 10.6057 57.8427 9.38805C58.4297 8.17039 59.2886 7.2028 60.4193 6.48525C61.55 5.75683 62.9416 5.39263 64.5941 5.39263C65.8987 5.39263 66.975 5.61006 67.8231 6.04494C68.6711 6.47982 69.3451 7.03428 69.8452 7.70834C70.3453 8.3824 70.715 9.09994 70.9542 9.86098C71.1933 10.622 71.3455 11.345 71.4108 12.0299C71.4869 12.704 71.5249 13.253 71.5249 13.677V23.5106H67.5458ZM55.3312 23.5106V5.89817H58.8374V11.3613H59.3104V23.5106H55.3312Z" fill="white"/>
<path d="M80.7055 23.9999C79.4335 23.9999 78.3571 23.7607 77.4765 23.2823C76.5959 22.7931 75.9273 22.1462 75.4707 21.3417C75.0249 20.5372 74.802 19.6511 74.802 18.6835C74.802 17.8355 74.9434 17.0745 75.226 16.4004C75.5087 15.7155 75.9436 15.1284 76.5307 14.6392C77.1178 14.1391 77.8788 13.7314 78.8138 13.4161C79.5204 13.1878 80.3467 12.9812 81.2926 12.7964C82.2493 12.6116 83.2821 12.4431 84.3911 12.2908C85.5109 12.1278 86.6796 11.9538 87.8972 11.769L86.4948 12.5681C86.5056 11.3504 86.2338 10.4535 85.6794 9.87728C85.1249 9.30107 84.1899 9.01297 82.8744 9.01297C82.0808 9.01297 81.3143 9.19779 80.575 9.56743C79.8357 9.93708 79.3193 10.5731 79.0258 11.4755L75.4381 10.3502C75.8729 8.86076 76.6992 7.66485 77.9168 6.76248C79.1454 5.86012 80.7979 5.40893 82.8744 5.40893C84.44 5.40893 85.8153 5.66442 87.0003 6.1754C88.1962 6.68638 89.0823 7.52352 89.6585 8.68681C89.9738 9.30651 90.164 9.94251 90.2293 10.5948C90.2945 11.2363 90.3271 11.9375 90.3271 12.6985V23.5106H86.8862V19.6946L87.4569 20.3143C86.6633 21.5863 85.7337 22.5213 84.6683 23.1193C83.6137 23.7063 82.2928 23.9999 80.7055 23.9999ZM81.4883 20.8688C82.3798 20.8688 83.1408 20.7111 83.7714 20.3958C84.4019 20.0806 84.902 19.6946 85.2717 19.238C85.6522 18.7814 85.9077 18.3519 86.0381 17.9497C86.2447 17.4496 86.3589 16.8788 86.3806 16.2373C86.4132 15.585 86.4295 15.0577 86.4295 14.6555L87.6363 15.0143C86.4513 15.1991 85.4348 15.3622 84.5867 15.5035C83.7387 15.6448 83.0103 15.7807 82.4015 15.9112C81.7927 16.0308 81.2545 16.1667 80.787 16.3189C80.3304 16.482 79.9445 16.6722 79.6292 16.8897C79.3139 17.1071 79.0693 17.3571 78.8953 17.6398C78.7322 17.9225 78.6507 18.2541 78.6507 18.6346C78.6507 19.0695 78.7594 19.4554 78.9769 19.7925C79.1943 20.1186 79.5096 20.3795 79.9227 20.5752C80.3467 20.7709 80.8686 20.8688 81.4883 20.8688Z" fill="white"/>
<path d="M104.299 17.4323C105.058 16.6291 106.288 16.6291 107.047 17.4323L112.791 23.5107H118.288L109.796 14.5236C107.519 12.1139 103.827 12.1139 101.55 14.5236L93.0586 23.5107H98.5555L104.299 17.4323Z" fill="#FFC700"/>
<path d="M104.571 6.07851C105.33 6.88174 106.561 6.88174 107.32 6.07851L113.063 0H118.56L110.068 8.98726C107.791 11.3969 104.1 11.397 101.823 8.98726L93.3309 0H98.8277L104.571 6.07851Z" fill="#FFC700"/>
</svg>
